HIERARCHY
ROOT Hips
{
  OFFSET 1.44925e-005 102.336 -0.101585
  CHANNELS 6 Xposition Yposition Zposition Zrotation Xrotation Yrotation
  JOINT LeftUpLeg
  {
    OFFSET 8.9458 -8.66707 0.101652
    CHANNELS 3 Zrotation Xrotation Yrotation
    JOINT LeftLeg
    {
      OFFSET 0 -44.4227 1.3727
      CHANNELS 3 Zrotation Xrotation Yrotation
      JOINT LeftFoot
      {
        OFFSET -0.253549 -42.0924 -1.46059
        CHANNELS 3 Zrotation Xrotation Yrotation
        JOINT LeftToes
        {
          OFFSET -0.04 -4.41509 8.4991
          CHANNELS 3 Zrotation Xrotation Yrotation
          End Site
          {
            OFFSET 0.08 -0.047448 9.77979
          }
        }
      }
    }
  }
  JOINT Spine
  {
    OFFSET 0 11.8905 0
    CHANNELS 3 Zrotation Xrotation Yrotation
    JOINT Spine1
    {
      OFFSET 0 25.6574 0.127663
      CHANNELS 3 Zrotation Xrotation Yrotation
      JOINT RightShoulder
      {
        OFFSET -8.99 -0.362252 -0.22
        CHANNELS 3 Zrotation Xrotation Yrotation
        JOINT RightArm
        {
          OFFSET -10.2827 -0.00338 0.322123
          CHANNELS 3 Zrotation Xrotation Yrotation
          JOINT RightForeArm
          {
            OFFSET -26.364 0.099144 -1.42434
            CHANNELS 3 Zrotation Xrotation Yrotation
            JOINT RightHand
            {
              OFFSET -22.0324 0.085362 1.02216
              CHANNELS 3 Zrotation Xrotation Yrotation
              End Site
              {
                OFFSET -13.3284 -0.6 1.50291
              }
            }
          }
        }
      }
      JOINT LeftShoulder1
      {
        OFFSET 8.99 -0.362252 -0.22
        CHANNELS 3 Zrotation Xrotation Yrotation
        JOINT LeftArm
        {
          OFFSET 10.2827 -0.00337999 0.322123
          CHANNELS 3 Zrotation Xrotation Yrotation
          JOINT LeftForeArm
          {
            OFFSET 26.2597 0.099144 -1.42434
            CHANNELS 3 Zrotation Xrotation Yrotation
            JOINT LeftHand
            {
              OFFSET 22.0902 0.085362 1.02216
              CHANNELS 3 Zrotation Xrotation Yrotation
              End Site
              {
                OFFSET 13.419 -0.6 1.50291
              }
            }
          }
        }
      }
      JOINT Head
      {
        OFFSET 0 8.73416 0.011341
        CHANNELS 3 Zrotation Xrotation Yrotation
        End Site
        {
          OFFSET -0.29 12.7742 2.51395
        }
      }
    }
  }
  JOINT RightUpLeg
  {
    OFFSET -8.9458 -8.66707 0.101652
    CHANNELS 3 Zrotation Xrotation Yrotation
    JOINT RightLeg
    {
      OFFSET 0 -44.4227 1.3727
      CHANNELS 3 Zrotation Xrotation Yrotation
      JOINT RightFoot
      {
        OFFSET 0.253549 -42.0924 -1.46059
        CHANNELS 3 Zrotation Xrotation Yrotation
        JOINT RightToes
        {
          OFFSET 0.04 -4.41509 8.4991
          CHANNELS 3 Zrotation Xrotation Yrotation
          End Site
          {
            OFFSET -0.08 -0.137448 9.77979
          }
        }
      }
    }
  }
}
MOTION
Frames:	10
Frame Time:	0.0333333
27.9629 99.8627 -3.32168 -5.28456 0.0522514 -89.2938 -1.66694 -12.9004 -5.28988 1.91704 56.304 22.7469 -7.28638 -13.0727 -0.287221 -1.28122e-009 8.75267e-006 -1.47551e-008 9.5228 16.0708 1.44577 -6.25664 -0.0729094 4.46247 33.5908 1.77068 0.413601 34.8174 -4.29336 28.7558 4.36156 17.5652 22.1528 -7.82857 9.64722 -1.35782 -46.9657 3.64481 -3.25636 -23.5089 -12.7566 2.81529 -1.9458 24.671 -22.4266 5.82328 9.61819 -0.917488 -0.46867 -10.3861 -8.54288 0.958083 -7.32504 -6.50606 2.7437 23.4443 -18.9808 2.76604 -17.5953 0.00723576 0.0462048 0.000530889 0.662642 
29.4702 99.7961 -3.06703 -5.2077 0.362779 -89.4616 -0.708757 -8.64147 -3.09933 1.88823 55.4747 22.9187 -7.87562 -14.2107 -0.387172 -1.28122e-009 8.75267e-006 -1.47551e-008 10.0224 15.7043 1.05418 -6.70674 0.164612 4.24232 33.667 1.7763 0.419875 34.209 -1.83383 28.7443 5.24623 18.6074 19.1924 -8.23525 9.61691 -1.09631 -47.1451 3.62395 -3.19267 -22.5509 -18.1823 3.06908 -7.4246 33.6045 -10.5284 5.82328 9.61819 -0.917488 -0.783308 -10.539 -7.70054 1.19593 -8.45652 -6.33945 2.60117 23.3937 -19.0042 2.25883 -16.4608 -0.0536899 0.0462048 0.000530889 0.662642 
30.9972 99.6071 -2.77267 -4.89243 0.840517 -89.9792 0.636469 -4.32743 0.386445 1.75835 52.708 22.8573 -7.80058 -14.8305 -0.422834 -1.28122e-009 8.75267e-006 -1.47551e-008 10.1548 15.1934 0.800815 -6.6387 0.258964 3.94017 33.8271 1.78193 0.419194 35.1993 -2.81625 28.9348 6.8075 23.5545 15.1618 -8.02563 9.61526 -0.942426 -47.4928 3.61496 -3.12802 -21.0774 -24.9082 4.51344 -13.3871 45.4098 0.108077 5.82328 9.61819 -0.917488 -0.845237 -10.7782 -6.59631 1.67838 -10.1526 -6.37858 2.19008 23.9147 -18.4488 2.05915 -15.5741 -0.079732 0.0462048 0.000530889 0.662642 
32.5394 99.3467 -2.46311 -4.32546 1.15444 -90.7366 1.72722 0.0230328 4.51069 1.56431 47.5879 22.2772 -8.9234 -14.7737 -0.488942 -1.28122e-009 8.75267e-006 -1.47551e-008 9.48485 14.5652 0.716193 -6.02342 0.227753 3.51519 33.97 1.78309 0.409946 37.7051 -6.70456 29.1719 8.73997 31.5904 10.4753 -7.44409 9.64282 -1.03887 -47.7418 3.60359 -3.07315 -20.4456 -24.997 7.15817 -15.968 49.8252 4.89564 5.82328 9.61819 -0.917488 -0.742213 -11.2956 -5.18363 2.07964 -12.3818 -6.97447 1.33187 24.9172 -16.9838 1.97654 -14.7942 -0.0939944 0.0462048 0.000530889 0.662642 
34.093 99.1191 -2.14134 -3.79359 1.1514 -91.2684 1.99447 4.58099 8.12922 1.3362 39.9636 20.689 -12.4985 -15.7815 -0.836613 -1.28122e-009 8.75267e-006 -1.47551e-008 8.08195 14.1053 0.631004 -5.15993 0.0731793 2.88145 34.26 1.78264 0.375871 40.58 -11.5058 29.2452 10.7082 39.253 5.91398 -6.96771 9.67752 -1.36186 -47.596 3.5717 -3.03475 -20.202 -25.1111 10.5352 -15.8453 51.281 5.18882 5.82328 9.61819 -0.917488 -0.546141 -12.1719 -3.69219 2.23149 -14.5298 -7.71563 0.199077 25.7575 -15.393 1.83071 -13.8305 -0.112524 0.0462048 0.000530889 0.662642 
35.7952 98.8472 -1.74874 -3.43362 1.01066 -91.3255 1.40609 8.87843 10.646 1.13689 30.8801 18.5534 -16.2564 -19.225 -1.59152 -1.28122e-009 8.75267e-006 -1.47551e-008 6.60804 14.1033 0.38835 -4.28851 -0.229993 2.09307 34.9365 1.78257 0.309282 42.6894 -15.9201 28.8668 12.2089 43.6124 2.29633 -7.04027 9.69179 -1.6833 -47.2933 3.53663 -3.01147 -20.1871 -25.0808 13.326 -14.7227 50.2312 3.77971 5.82328 9.61819 -0.917488 -0.438149 -13.4184 -2.52675 2.17414 -16.5764 -7.84429 -0.6888 26.5479 -14.8845 1.64226 -12.7512 -0.131516 0.0462048 0.000530889 0.662642 
37.7677 98.4428 -1.24871 -3.1501 0.633688 -91.0789 0.0828546 11.865 11.058 0.554108 22.5808 18.5617 -16.7072 -23.6648 -2.28786 -1.28122e-009 8.75267e-006 -1.47551e-008 5.25991 14.5368 0.0922082 -3.4321 -0.601741 1.34913 35.8993 1.78502 0.228951 43.8292 -19.7477 27.9224 12.7737 44.3803 0.0615038 -7.73315 9.6788 -1.84441 -47.2444 3.52842 -3.00295 -20.2049 -24.8499 14.3998 -14.3643 48.7564 3.1912 5.82328 9.61819 -0.917488 -0.663186 -14.9249 -1.92416 1.70281 -18.884 -7.28963 -1.00382 27.7094 -15.5912 1.49167 -11.7478 -0.144978 0.0462048 0.000530889 0.662642 
39.924 98.0124 -0.721174 -3.03439 -0.210972 -90.9418 -1.95513 12.9847 7.59432 -0.684682 17.4036 23.4867 -13.8357 -26.6395 -2.24892 -1.28122e-009 8.75267e-006 -1.47551e-008 3.25219 15.2453 0.002058 -2.54285 -0.845936 0.806033 36.815 1.79113 0.160812 44.5055 -23.0175 26.5501 12.4768 43.1945 -1.01845 -8.55921 9.65931 -1.93264 -47.4116 3.55095 -3.02173 -20.4091 -24.6127 13.37 -14.8602 48.2442 3.71067 5.82328 9.61819 -0.917488 -1.15918 -16.4181 -1.77577 0.300744 -21.2607 -6.90724 -1.01015 29.1438 -16.3159 1.45105 -10.8104 -0.152371 0.0462048 0.000530889 0.662642 
42.1215 97.6562 -0.283952 -3.37651 -2.11142 -90.751 -4.69678 12.6289 5.19945 -1.10285 15.9215 27.1565 -11.1331 -27.7279 -1.88698 -1.28122e-009 8.75267e-006 -1.47551e-008 0.215378 16.1381 0.181963 -1.67614 -0.635449 0.478871 37.5089 1.79785 0.115886 45.3623 -25.792 25.0657 11.9648 42.0339 -1.72446 -8.99474 9.6595 -2.12465 -47.4542 3.5785 -3.0665 -21.0069 -24.301 10.5038 -15.7843 48.8449 4.59605 5.82328 9.61819 -0.917488 -1.45338 -17.7133 -1.79222 -2.094 -23.1816 -7.06579 -1.02645 30.5573 -16.3991 1.52095 -9.8492 -0.156915 0.0462048 0.000530889 0.662642 
44.2225 97.473 0.0360845 -4.1828 -4.4477 -91.0287 -7.55064 11.9035 3.88851 -1.43088 16.2714 28.7783 -10.2178 -27.6867 -1.71169 -1.28122e-009 8.75267e-006 -1.47551e-008 -3.14752 16.9341 0.487192 -1.26344 0.244986 0.293658 37.9815 1.8047 0.0909939 46.4435 -27.5577 23.4941 11.7074 41.6447 -2.5249 -8.96976 9.68057 -2.42159 -47.3 3.58452 -3.09861 -21.6631 -23.6564 6.39042 -16.9323 50.2706 5.37991 5.82328 9.61819 -0.917488 -1.20872 -18.8145 -1.78571 -4.94079 -24.1944 -7.35478 -1.02461 31.2334 -16.1572 1.50552 -8.681 -0.164811 0.0462048 0.000530889 0.662642 
